<mxfile host="app.diagrams.net" agent="Mozilla/5.0 (Windows NT 10.0; Win64; x64) AppleWebKit/537.36 (KHTML, like Gecko) Chrome/129.0.0.0 Safari/537.36 Edg/129.0.0.0" version="24.7.17">
  <diagram name="Page-1" id="8UrFPR7ly6lcAhRuLfnR">
    <mxGraphModel dx="749" dy="433" grid="1" gridSize="10" guides="1" tooltips="1" connect="1" arrows="1" fold="1" page="1" pageScale="1" pageWidth="827" pageHeight="1169" math="0" shadow="0">
      <root>
        <mxCell id="0" />
        <mxCell id="1" parent="0" />
        <mxCell id="GSawSExxGXBwbf_lMD4K-20" value="" style="edgeStyle=none;rounded=0;orthogonalLoop=1;jettySize=auto;html=1;" edge="1" parent="1" source="GSawSExxGXBwbf_lMD4K-1" target="GSawSExxGXBwbf_lMD4K-12">
          <mxGeometry relative="1" as="geometry" />
        </mxCell>
        <mxCell id="GSawSExxGXBwbf_lMD4K-26" value="" style="edgeStyle=none;rounded=0;orthogonalLoop=1;jettySize=auto;html=1;" edge="1" parent="1" source="GSawSExxGXBwbf_lMD4K-1" target="GSawSExxGXBwbf_lMD4K-24">
          <mxGeometry relative="1" as="geometry" />
        </mxCell>
        <mxCell id="GSawSExxGXBwbf_lMD4K-1" value="id_c&lt;div&gt;nom&lt;/div&gt;&lt;div&gt;description&lt;/div&gt;&lt;div&gt;&lt;br&gt;&lt;/div&gt;" style="whiteSpace=wrap;html=1;aspect=fixed;" vertex="1" parent="1">
          <mxGeometry x="560" y="150" width="150" height="150" as="geometry" />
        </mxCell>
        <mxCell id="GSawSExxGXBwbf_lMD4K-4" value="Cours" style="rounded=0;whiteSpace=wrap;html=1;" vertex="1" parent="1">
          <mxGeometry x="560" y="150" width="150" height="30" as="geometry" />
        </mxCell>
        <mxCell id="GSawSExxGXBwbf_lMD4K-19" style="edgeStyle=none;rounded=0;orthogonalLoop=1;jettySize=auto;html=1;entryX=0;entryY=0.5;entryDx=0;entryDy=0;" edge="1" parent="1" source="GSawSExxGXBwbf_lMD4K-5" target="GSawSExxGXBwbf_lMD4K-12">
          <mxGeometry relative="1" as="geometry" />
        </mxCell>
        <mxCell id="GSawSExxGXBwbf_lMD4K-5" value="id_et&lt;div&gt;nom&lt;/div&gt;&lt;div&gt;date de naissance&lt;/div&gt;&lt;div&gt;adresse&lt;/div&gt;" style="whiteSpace=wrap;html=1;aspect=fixed;" vertex="1" parent="1">
          <mxGeometry x="80" y="150" width="150" height="150" as="geometry" />
        </mxCell>
        <mxCell id="GSawSExxGXBwbf_lMD4K-6" value="Etudiants" style="rounded=0;whiteSpace=wrap;html=1;" vertex="1" parent="1">
          <mxGeometry x="80" y="150" width="150" height="30" as="geometry" />
        </mxCell>
        <mxCell id="GSawSExxGXBwbf_lMD4K-7" value="id_e&lt;div&gt;nom&lt;/div&gt;&lt;div&gt;adresse&lt;/div&gt;&lt;div&gt;spécialité&lt;/div&gt;" style="whiteSpace=wrap;html=1;aspect=fixed;" vertex="1" parent="1">
          <mxGeometry x="560" y="435" width="150" height="150" as="geometry" />
        </mxCell>
        <mxCell id="GSawSExxGXBwbf_lMD4K-25" value="" style="edgeStyle=none;rounded=0;orthogonalLoop=1;jettySize=auto;html=1;" edge="1" parent="1" source="GSawSExxGXBwbf_lMD4K-8" target="GSawSExxGXBwbf_lMD4K-24">
          <mxGeometry relative="1" as="geometry" />
        </mxCell>
        <mxCell id="GSawSExxGXBwbf_lMD4K-8" value="Enseignants" style="rounded=0;whiteSpace=wrap;html=1;" vertex="1" parent="1">
          <mxGeometry x="560" y="435" width="150" height="30" as="geometry" />
        </mxCell>
        <mxCell id="GSawSExxGXBwbf_lMD4K-12" value="inscrit" style="rounded=1;whiteSpace=wrap;html=1;" vertex="1" parent="1">
          <mxGeometry x="350" y="207.5" width="120" height="35" as="geometry" />
        </mxCell>
        <mxCell id="GSawSExxGXBwbf_lMD4K-18" style="edgeStyle=none;rounded=0;orthogonalLoop=1;jettySize=auto;html=1;entryX=1;entryY=0.5;entryDx=0;entryDy=0;shape=link;" edge="1" parent="1" source="GSawSExxGXBwbf_lMD4K-5" target="GSawSExxGXBwbf_lMD4K-5">
          <mxGeometry relative="1" as="geometry" />
        </mxCell>
        <mxCell id="GSawSExxGXBwbf_lMD4K-21" value="0,n" style="whiteSpace=wrap;html=1;" vertex="1" parent="1">
          <mxGeometry x="280" y="200" width="30" height="20" as="geometry" />
        </mxCell>
        <mxCell id="GSawSExxGXBwbf_lMD4K-22" value="1,n" style="whiteSpace=wrap;html=1;" vertex="1" parent="1">
          <mxGeometry x="500" y="200" width="30" height="20" as="geometry" />
        </mxCell>
        <mxCell id="GSawSExxGXBwbf_lMD4K-24" value="enseigner" style="rounded=1;whiteSpace=wrap;html=1;" vertex="1" parent="1">
          <mxGeometry x="575" y="350" width="120" height="35" as="geometry" />
        </mxCell>
        <mxCell id="GSawSExxGXBwbf_lMD4K-27" value="0,n" style="whiteSpace=wrap;html=1;" vertex="1" parent="1">
          <mxGeometry x="590" y="410" width="30" height="20" as="geometry" />
        </mxCell>
        <mxCell id="GSawSExxGXBwbf_lMD4K-29" value="1,n" style="whiteSpace=wrap;html=1;" vertex="1" parent="1">
          <mxGeometry x="590" y="310" width="30" height="20" as="geometry" />
        </mxCell>
      </root>
    </mxGraphModel>
  </diagram>
</mxfile>
